<?xml version="1.0" encoding="UTF-8"?>
<svg xmlns="http://www.w3.org/2000/svg" xmlns:xlink="http://www.w3.org/1999/xlink" width="50pt" height="39pt" viewBox="0 0 50 39" version="1.1">
<g id="surface1">
<path style=" stroke:none;fill-rule:evenodd;fill:rgb(63.921569%,73.333333%,78.431373%);fill-opacity:1;" d="M 0.15625 28.675781 C 0.316406 28.867188 0.535156 29.003906 0.777344 29.0625 L 48.820312 38.859375 C 49.140625 38.921875 49.46875 38.847656 49.726562 38.648438 C 49.964844 38.453125 50.082031 38.152344 50.039062 37.847656 L 43.785156 0.769531 C 43.734375 0.5 43.574219 0.265625 43.339844 0.125 C 43.035156 -0.0117188 42.691406 -0.03125 42.371094 0.0742188 L 7.179688 14.117188 C 6.957031 14.195312 6.777344 14.359375 6.671875 14.570312 C 6.5 14.894531 0.179688 27.644531 0.0898438 27.828125 C -0.0507812 28.097656 -0.0234375 28.425781 0.15625 28.675781 Z M 45.742188 35.109375 L 25.691406 23.964844 L 36.03125 21.804688 Z M 8.042969 16.226562 L 20.570312 23.210938 L 2.734375 26.925781 Z M 9.703125 15.054688 L 41.238281 2.46875 L 35.683594 20.054688 L 23.3125 22.640625 Z M 47.363281 34.050781 L 37.585938 20.648438 L 42.484375 5.128906 Z M 43.476562 35.949219 L 5.425781 28.1875 L 22.949219 24.535156 Z M 43.476562 35.949219 "/>
</g>
</svg>
